#!OML:ASF F:\VICON\USERDATA\INSTALL\rory3\rory3.ASF
:FULLY-SPECIFIED
:DEGREES
144
root 1.4690261935663678 17.860654068207637 56.989010550926835 -3.7320429901278827 0.060902878469338784 -4.67482390702782
lfemur -6.381484916512209 -0.9835191556468974 -14.275850251284306
ltibia 57.94842446149923
lfoot -6.530373815147344 -0.7812756915314742
ltoes -12.58274351771896
rfemur -12.964982505357781 0.26544351142735434 27.775613956757756
rtibia 31.340275117327643
rfoot -11.38046676389501 -11.042352939013082
rtoes 0.2295116911056505
lowerback 10.296270612887968 -0.977280905861115 1.5996539696454701
upperback -0.3182139877408448 -0.9038570233654504 2.363690712815862
thorax -6.152538871775246 -0.4347429280190861 2.64931886456543
lowerneck -17.09388134105256 -3.391146551337993 -1.3942944727453286
upperneck 21.334465340691718 -4.532978862265686 1.011938707629774
head 9.592165006273799 -2.12894347463045 0.04028731020913662
lclavicle -2.514646072868653e-15 -2.7380515946270846e-15
lhumerus -31.267547159948116 3.1473974067615664 82.2107440834334
lradius 24.4236415675436
lwrist 11.664757180280994
lhand -29.748100444673195 18.305896717549242
lfingers nan
lthumb -2.9921834112027175 48.431704628858796
rclavicle -2.4924452612889452e-15 -2.726185980604926e-15
rhumerus -30.48906734383533 -20.62069342329947 -75.9501763135125
rradius 33.096733929929144
rwrist 2.196333163156001
rhand -17.7912692752847 21.735864503917966
rfingers nan
rthumb 8.394493799225106 -7.749068179703922
145
root 1.4554599414640128 17.865226248514013 56.752911295812694 -3.766522985093266 0.4163770140527543 -5.011101399309961
lfemur -9.490076595606851 -1.0003169341930183 -14.024695196394546
ltibia 59.089940811468864
lfoot -6.910261950819748 -0.2837014514951144
ltoes -13.71141819888733
rfemur -11.509735575056132 0.22836138617020518 27.977755708436817
rtibia 31.33577762647494
rfoot -10.385193675937817 -10.66141393588818
rtoes -0.3848391500070054
lowerback 10.231989311904034 -0.7705883464407017 2.1352714857297674
upperback -0.33732026949748944 -0.5042186382080405 2.3362612571628225
thorax -6.174366433452839 -0.24881724906289424 2.203251966639586
lowerneck -17.061269291442507 -3.5069540495074647 -1.3396294141169218
upperneck 21.180558531216093 -4.74903771174352 1.0159666024503335
head 9.544761123645845 -2.206780081109536 -0.009948615871369137
lclavicle -2.514909747070038e-15 -2.7392299340400203e-15
lhumerus -31.171516599410005 3.0540952304558022 82.22549800607376
lradius 24.7084854909981
lwrist 11.6199175523974
lhand -29.728420149703034 18.18615174036372
lfingers nan
lthumb -2.961257177510562 48.346484224561735
rclavicle -2.4941692730727763e-15 -2.7280134796111587e-15
rhumerus -30.404216586832895 -20.29367172918671 -75.99941487813227
rradius 33.116778815042316
rwrist 2.1645016100226573
rhand -17.80858424484621 21.703169711125888
rfingers nan
rthumb 8.369005944757642 -7.7997108377388935
146
root 1.443573644799598 17.864160211708548 55.80305779877682 -3.934563665098453 0.5421461660869147 -5.321255957926562
lfemur -12.050079036772495 -1.094235279202375 -14.029712937378909
ltibia 58.631999061679025
lfoot -7.634666995245964 0.2722371684624618
ltoes -14.740039021414766
rfemur -10.398121521553202 0.3974954977541245 28.34705207727797
rtibia 31.492893568315562
rfoot -8.884920543755008 -10.33204845166097
rtoes -0.5581993025803924
lowerback 10.204966474021289 -0.50924667628907 2.527077071699809
upperback -0.36476706212957344 -0.11254821899688422 2.2758537370014094
thorax -6.195773658792904 -0.04522424825047969 1.708489745002389
lowerneck -16.96199821362934 -3.6223676557032674 -1.3106857799205902
upperneck 21.118029879656117 -4.961067181806175 1.0166471036992786
head 9.528333473132083 -2.282826872042337 -0.0556116188429536
lclavicle -2.513344860953141e-15 -2.740023747594149e-15
lhumerus -30.995701358128546 2.8644458178794405 82.2240306978484
lradius 24.962033754074056
lwrist 11.427533443222258
lhand -29.7197723345758 18.055497014967642
lfingers nan
lthumb -2.942784605901108 48.25962488241977
rclavicle -2.49542035385925e-15 -2.730026117037759e-15
rhumerus -30.286242173823307 -20.001718488867695 -76.01429626768063
rradius 33.127145008704794
rwrist 2.1414971932739393
rhand -17.790830500585457 21.73221950993146
rfingers nan
rthumb 8.408682564604728 -7.723666272915443
147
root 1.4251061100880955 17.85745764584084 54.83532767462008 -4.165614543908313 0.6981039708797124 -5.178974322929918
lfemur -13.728820525474196 -1.2238134493359742 -14.462533965693366
ltibia 56.52542176977543
lfoot -7.983182254399291 1.010718548003747
ltoes -14.956823122494757
rfemur -9.283214213139999 0.6218712861892082 28.43343312175749
rtibia 31.676282242766785
rfoot -7.00482042485059 -10.103092974601875
rtoes -0.15454736211923503
lowerback 10.208312141331747 -0.28045132004354245 2.644953080610769
upperback -0.35882956441583724 0.18797343703902009 2.147628126236464
thorax -6.183560680692688 0.138439764981647 1.3870231442597536
lowerneck -16.8056255606967 -3.7276286484586483 -1.3222649786916787
upperneck 21.14865326827887 -5.155149312496227 1.0297153887142358
head 9.541851460943766 -2.3523481443483467 -0.08890546020933252
lclavicle -2.5123458757601036e-15 -2.741308919912953e-15
lhumerus -30.74062933369167 2.6591910211442142 82.20021601746191
lradius 25.180581523214986
lwrist 11.185566787557208
lhand -29.69642626393775 18.016372462726025
lfingers nan
lthumb -2.9268443430857403 48.21522613109337
rclavicle -2.4955507400160308e-15 -2.7314611510319312e-15
rhumerus -30.190194614198937 -19.81451276549604 -76.04368790581262
rradius 33.124037484347305
rwrist 2.1283285515153176
rhand -17.81918680048745 21.68046063142831
rfingers nan
rthumb 8.350085430436064 -7.840438229120227
148
root 1.3685377182939895 17.839871935964542 53.45798144990341 -4.419444528484575 0.7728988092787825 -4.834278880538799
lfemur -14.825821153846666 -1.379932450668345 -15.09277798100324
ltibia 53.17751591876835
lfoot -8.321945966603028 1.6759965575139053
ltoes -16.15316250938127
rfemur -8.43234897836583 0.8458176494620051 28.383049451838122
rtibia 32.1054576822673
rfoot -5.009012321214561 -9.998747617806
rtoes 0.9483475709943632
lowerback 10.20246909765711 -0.1015541160718266 2.4437401391423434
upperback -0.33221871990676394 0.389879819050624 2.0002889110341
thorax -6.150131831949532 0.2265249573653434 1.025820894656285
lowerneck -16.612147119111196 -3.8147887769073594 -1.370114064229722
upperneck 21.254310525526474 -5.320342961786375 1.063701644545143
head 9.57766029389905 -2.4115616462994454 -0.10601863645191686
lclavicle -2.5122296796807818e-15 -2.7424959237498277e-15
lhumerus -30.430934899955112 2.4692386216040667 82.13962533738778
lradius 25.387495638403784
lwrist 10.959557465093313
lhand -29.673855096223622 17.984551519717634
lfingers nan
lthumb -2.900133525634518 48.236866361402406
rclavicle -2.4957864045531025e-15 -2.732517535814263e-15
rhumerus -30.159983923749813 -19.728487340446577 -76.08203172451026
rradius 33.115563157876295
rwrist 2.1265276955884413
rhand -17.80972033468882 21.699262515830384
rfingers nan
rthumb 8.408510083958552 -7.728741644460613
